<mxfile host="app.diagrams.net" modified="2023-10-19T16:48:49.368Z" agent="Mozilla/5.0 (Macintosh; Intel Mac OS X 10_15_7) AppleWebKit/605.1.15 (KHTML, like Gecko) Version/17.0 Safari/605.1.15" etag="NoW7o7cx02m08dTOQEoS" version="22.0.5" type="device">
  <diagram name="Pagina-1" id="ySAlzTO9xSb68AIOjVqK">
    <mxGraphModel dx="1016" dy="696" grid="1" gridSize="10" guides="1" tooltips="1" connect="1" arrows="1" fold="1" page="1" pageScale="1" pageWidth="827" pageHeight="1169" math="0" shadow="0">
      <root>
        <mxCell id="0" />
        <mxCell id="1" parent="0" />
        <mxCell id="B4bG9vJrXbDDQc9Q92UV-4" style="edgeStyle=orthogonalEdgeStyle;rounded=0;orthogonalLoop=1;jettySize=auto;html=1;endArrow=none;endFill=0;" edge="1" parent="1" source="B4bG9vJrXbDDQc9Q92UV-1" target="B4bG9vJrXbDDQc9Q92UV-3">
          <mxGeometry relative="1" as="geometry" />
        </mxCell>
        <mxCell id="B4bG9vJrXbDDQc9Q92UV-1" value="User" style="shape=umlActor;verticalLabelPosition=bottom;verticalAlign=top;html=1;outlineConnect=0;" vertex="1" parent="1">
          <mxGeometry x="40" y="200" width="30" height="60" as="geometry" />
        </mxCell>
        <mxCell id="B4bG9vJrXbDDQc9Q92UV-35" style="rounded=0;orthogonalLoop=1;jettySize=auto;html=1;endArrow=none;endFill=0;" edge="1" parent="1" source="B4bG9vJrXbDDQc9Q92UV-2" target="B4bG9vJrXbDDQc9Q92UV-33">
          <mxGeometry relative="1" as="geometry" />
        </mxCell>
        <mxCell id="B4bG9vJrXbDDQc9Q92UV-37" style="rounded=0;orthogonalLoop=1;jettySize=auto;html=1;endArrow=none;endFill=0;" edge="1" parent="1" source="B4bG9vJrXbDDQc9Q92UV-2" target="B4bG9vJrXbDDQc9Q92UV-30">
          <mxGeometry relative="1" as="geometry" />
        </mxCell>
        <mxCell id="B4bG9vJrXbDDQc9Q92UV-2" value="Operator" style="shape=umlActor;verticalLabelPosition=bottom;verticalAlign=top;html=1;outlineConnect=0;" vertex="1" parent="1">
          <mxGeometry x="780" y="470" width="30" height="60" as="geometry" />
        </mxCell>
        <mxCell id="B4bG9vJrXbDDQc9Q92UV-3" value="Login / Register" style="ellipse;whiteSpace=wrap;html=1;" vertex="1" parent="1">
          <mxGeometry x="194" y="190" width="120" height="80" as="geometry" />
        </mxCell>
        <mxCell id="B4bG9vJrXbDDQc9Q92UV-11" style="edgeStyle=orthogonalEdgeStyle;rounded=0;orthogonalLoop=1;jettySize=auto;html=1;endArrow=block;endFill=0;endSize=10;" edge="1" parent="1" source="B4bG9vJrXbDDQc9Q92UV-7">
          <mxGeometry relative="1" as="geometry">
            <mxPoint x="55" y="280" as="targetPoint" />
          </mxGeometry>
        </mxCell>
        <mxCell id="B4bG9vJrXbDDQc9Q92UV-23" style="rounded=0;orthogonalLoop=1;jettySize=auto;html=1;endArrow=none;endFill=0;" edge="1" parent="1" source="B4bG9vJrXbDDQc9Q92UV-7" target="B4bG9vJrXbDDQc9Q92UV-12">
          <mxGeometry relative="1" as="geometry" />
        </mxCell>
        <mxCell id="B4bG9vJrXbDDQc9Q92UV-24" style="rounded=0;orthogonalLoop=1;jettySize=auto;html=1;endArrow=none;endFill=0;" edge="1" parent="1" source="B4bG9vJrXbDDQc9Q92UV-7" target="B4bG9vJrXbDDQc9Q92UV-13">
          <mxGeometry relative="1" as="geometry" />
        </mxCell>
        <mxCell id="B4bG9vJrXbDDQc9Q92UV-26" style="rounded=0;orthogonalLoop=1;jettySize=auto;html=1;endArrow=none;endFill=0;" edge="1" parent="1" source="B4bG9vJrXbDDQc9Q92UV-7" target="B4bG9vJrXbDDQc9Q92UV-25">
          <mxGeometry relative="1" as="geometry" />
        </mxCell>
        <mxCell id="B4bG9vJrXbDDQc9Q92UV-7" value="Logged User" style="shape=umlActor;verticalLabelPosition=bottom;verticalAlign=top;html=1;outlineConnect=0;" vertex="1" parent="1">
          <mxGeometry x="40" y="370" width="30" height="60" as="geometry" />
        </mxCell>
        <mxCell id="B4bG9vJrXbDDQc9Q92UV-15" style="rounded=0;orthogonalLoop=1;jettySize=auto;html=1;dashed=1;endArrow=open;endFill=0;" edge="1" parent="1" source="B4bG9vJrXbDDQc9Q92UV-12" target="B4bG9vJrXbDDQc9Q92UV-14">
          <mxGeometry relative="1" as="geometry" />
        </mxCell>
        <mxCell id="B4bG9vJrXbDDQc9Q92UV-19" value="«include»" style="edgeLabel;html=1;align=center;verticalAlign=middle;resizable=0;points=[];" vertex="1" connectable="0" parent="B4bG9vJrXbDDQc9Q92UV-15">
          <mxGeometry x="-0.3182" relative="1" as="geometry">
            <mxPoint x="11" y="-12" as="offset" />
          </mxGeometry>
        </mxCell>
        <mxCell id="B4bG9vJrXbDDQc9Q92UV-12" value="Booking E-Scooter" style="ellipse;whiteSpace=wrap;html=1;" vertex="1" parent="1">
          <mxGeometry x="194" y="420" width="120" height="80" as="geometry" />
        </mxCell>
        <mxCell id="B4bG9vJrXbDDQc9Q92UV-16" style="rounded=0;orthogonalLoop=1;jettySize=auto;html=1;dashed=1;endArrow=open;endFill=0;" edge="1" parent="1" source="B4bG9vJrXbDDQc9Q92UV-13" target="B4bG9vJrXbDDQc9Q92UV-14">
          <mxGeometry relative="1" as="geometry" />
        </mxCell>
        <mxCell id="B4bG9vJrXbDDQc9Q92UV-22" value="«include»" style="edgeLabel;html=1;align=center;verticalAlign=middle;resizable=0;points=[];" vertex="1" connectable="0" parent="B4bG9vJrXbDDQc9Q92UV-16">
          <mxGeometry x="0.1978" y="3" relative="1" as="geometry">
            <mxPoint x="-6" y="20" as="offset" />
          </mxGeometry>
        </mxCell>
        <mxCell id="B4bG9vJrXbDDQc9Q92UV-13" value="Unlock E-Scooter" style="ellipse;whiteSpace=wrap;html=1;" vertex="1" parent="1">
          <mxGeometry x="194" y="520" width="120" height="80" as="geometry" />
        </mxCell>
        <mxCell id="B4bG9vJrXbDDQc9Q92UV-14" value="Payment" style="ellipse;whiteSpace=wrap;html=1;" vertex="1" parent="1">
          <mxGeometry x="374" y="470" width="120" height="80" as="geometry" />
        </mxCell>
        <mxCell id="B4bG9vJrXbDDQc9Q92UV-28" value="" style="edgeStyle=orthogonalEdgeStyle;rounded=0;orthogonalLoop=1;jettySize=auto;html=1;endArrow=block;endFill=0;endSize=10;" edge="1" parent="1" source="B4bG9vJrXbDDQc9Q92UV-25" target="B4bG9vJrXbDDQc9Q92UV-27">
          <mxGeometry relative="1" as="geometry" />
        </mxCell>
        <mxCell id="B4bG9vJrXbDDQc9Q92UV-25" value="Search for nearest available&lt;br&gt;E-Scooters" style="ellipse;whiteSpace=wrap;html=1;" vertex="1" parent="1">
          <mxGeometry x="194" y="320" width="120" height="80" as="geometry" />
        </mxCell>
        <mxCell id="B4bG9vJrXbDDQc9Q92UV-27" value="search E-Scooter" style="ellipse;whiteSpace=wrap;html=1;" vertex="1" parent="1">
          <mxGeometry x="380" y="320" width="120" height="80" as="geometry" />
        </mxCell>
        <mxCell id="B4bG9vJrXbDDQc9Q92UV-30" value="Pickup E-Scooters" style="ellipse;whiteSpace=wrap;html=1;" vertex="1" parent="1">
          <mxGeometry x="570" y="460" width="120" height="80" as="geometry" />
        </mxCell>
        <mxCell id="B4bG9vJrXbDDQc9Q92UV-36" style="rounded=0;orthogonalLoop=1;jettySize=auto;html=1;entryX=1;entryY=0.5;entryDx=0;entryDy=0;endArrow=block;endFill=0;endSize=10;" edge="1" parent="1" source="B4bG9vJrXbDDQc9Q92UV-33" target="B4bG9vJrXbDDQc9Q92UV-27">
          <mxGeometry relative="1" as="geometry" />
        </mxCell>
        <mxCell id="B4bG9vJrXbDDQc9Q92UV-33" value="Search for &lt;br&gt;E-Scooter that need maintenance" style="ellipse;whiteSpace=wrap;html=1;" vertex="1" parent="1">
          <mxGeometry x="560" y="320" width="120" height="80" as="geometry" />
        </mxCell>
        <mxCell id="B4bG9vJrXbDDQc9Q92UV-40" style="rounded=0;orthogonalLoop=1;jettySize=auto;html=1;endArrow=none;endFill=0;" edge="1" parent="1" source="B4bG9vJrXbDDQc9Q92UV-38" target="B4bG9vJrXbDDQc9Q92UV-39">
          <mxGeometry relative="1" as="geometry" />
        </mxCell>
        <mxCell id="B4bG9vJrXbDDQc9Q92UV-44" style="rounded=0;orthogonalLoop=1;jettySize=auto;html=1;endArrow=none;endFill=0;" edge="1" parent="1" source="B4bG9vJrXbDDQc9Q92UV-38" target="B4bG9vJrXbDDQc9Q92UV-43">
          <mxGeometry relative="1" as="geometry" />
        </mxCell>
        <mxCell id="B4bG9vJrXbDDQc9Q92UV-38" value="Admin" style="shape=umlActor;verticalLabelPosition=bottom;verticalAlign=top;html=1;outlineConnect=0;" vertex="1" parent="1">
          <mxGeometry x="770" y="240" width="30" height="60" as="geometry" />
        </mxCell>
        <mxCell id="B4bG9vJrXbDDQc9Q92UV-39" value="Show the current state of E-Scooters" style="ellipse;whiteSpace=wrap;html=1;" vertex="1" parent="1">
          <mxGeometry x="560" y="220" width="120" height="80" as="geometry" />
        </mxCell>
        <mxCell id="B4bG9vJrXbDDQc9Q92UV-43" value="Historical analysis on statistics" style="ellipse;whiteSpace=wrap;html=1;" vertex="1" parent="1">
          <mxGeometry x="560" y="120" width="120" height="80" as="geometry" />
        </mxCell>
      </root>
    </mxGraphModel>
  </diagram>
</mxfile>
